<svg width="18" height="18" viewBox="0 0 18 18" fill="none" xmlns="http://www.w3.org/2000/svg">
<path d="M5.48761 2.82692C7.80328 2.56811 10.1968 2.56811 12.5125 2.82692C13.3819 2.92409 14.1451 3.39425 14.6279 4.07704L8.62506 10.0799L6.77281 8.22761C6.55314 8.00794 6.19698 8.00794 5.97731 8.22761C5.75764 8.44728 5.75764 8.80343 5.97731 9.0231L8.22731 11.2731C8.44698 11.4928 8.80314 11.4928 9.02281 11.2731L15.1094 5.18653C15.1262 5.2687 15.1397 5.35215 15.1496 5.43672C15.4265 7.80441 15.4265 10.1963 15.1496 12.564C14.9884 13.9417 13.8823 15.0207 12.5125 15.1738C10.1968 15.4326 7.80328 15.4326 5.48761 15.1738C4.11782 15.0207 3.01165 13.9417 2.85051 12.564C2.57359 10.1963 2.57359 7.80441 2.85051 5.43672C3.01165 4.059 4.11783 2.98001 5.48761 2.82692Z" fill="white"/>
</svg>
