<svg width="20" height="20" viewBox="0 0 20 20" fill="none" xmlns="http://www.w3.org/2000/svg">
<path d="M9.99996 6.87533C8.27407 6.87533 6.87496 8.27444 6.87496 10.0003C6.87496 11.7262 8.27407 13.1253 9.99996 13.1253C11.7258 13.1253 13.125 11.7262 13.125 10.0003C13.125 8.27444 11.7258 6.87533 9.99996 6.87533Z" fill="#666666"/>
<path fill-rule="evenodd" clip-rule="evenodd" d="M9.99996 1.04199C10.3451 1.04199 10.625 1.32181 10.625 1.66699V2.73507C14.1534 3.0346 16.9657 5.84684 17.2652 9.37533H18.3333C18.6785 9.37533 18.9583 9.65515 18.9583 10.0003C18.9583 10.3455 18.6785 10.6253 18.3333 10.6253H17.2652C16.9657 14.1538 14.1534 16.966 10.625 17.2656V18.3337C10.625 18.6788 10.3451 18.9587 9.99996 18.9587C9.65478 18.9587 9.37496 18.6788 9.37496 18.3337V17.2656C5.84647 16.966 3.03424 14.1538 2.7347 10.6253H1.66663C1.32145 10.6253 1.04163 10.3455 1.04163 10.0003C1.04163 9.65515 1.32145 9.37533 1.66663 9.37533H2.7347C3.03424 5.84684 5.84647 3.0346 9.37496 2.73507V1.66699C9.37496 1.32181 9.65478 1.04199 9.99996 1.04199ZM3.95829 10.0003C3.95829 13.337 6.66324 16.042 9.99996 16.042C13.3367 16.042 16.0416 13.337 16.0416 10.0003C16.0416 6.6636 13.3367 3.95866 9.99996 3.95866C6.66324 3.95866 3.95829 6.6636 3.95829 10.0003Z" fill="#666666"/>
</svg>
