<svg width="20" height="20" viewBox="0 0 20 20" fill="none" xmlns="http://www.w3.org/2000/svg">
<path fill-rule="evenodd" clip-rule="evenodd" d="M12.614 2.89155C12.4968 2.77434 12.3378 2.7085 12.1721 2.7085C12.0063 2.7085 11.8474 2.77434 11.7301 2.89155L4.06982 10.5519C3.9913 10.6304 3.93511 10.7284 3.90705 10.8359L3.07372 14.0262C3.01764 14.2409 3.07959 14.4692 3.23649 14.6261C3.39338 14.783 3.6217 14.845 3.83638 14.7889L7.02674 13.9556C7.13418 13.9275 7.2322 13.8713 7.31072 13.7928L14.971 6.13246C15.2151 5.88838 15.2151 5.49265 14.971 5.24858L12.614 2.89155ZM5.07361 11.3158L12.1721 4.21738L13.6452 5.69052L6.54675 12.789L4.55278 13.3098L5.07361 11.3158Z" fill="#AAAAAA" fill-opacity="0.8"/>
<path d="M3.33325 16.0418C2.98807 16.0418 2.70825 16.3217 2.70825 16.6668C2.70825 17.012 2.98807 17.2918 3.33325 17.2918H15.8333C16.1784 17.2918 16.4583 17.012 16.4583 16.6668C16.4583 16.3217 16.1784 16.0418 15.8333 16.0418H3.33325Z" fill="#AAAAAA" fill-opacity="0.8"/>
</svg>
