<svg viewBox="0 0 16 16" xmlns="http://www.w3.org/2000/svg">
<path fill-rule="evenodd" clip-rule="evenodd" d="M6.43502 1.9556C7.18783 0.871567 8.81259 0.871572 9.56539 1.9556L9.86316 2.38439C11.7287 5.07076 13.3315 7.92499 14.6502 10.9089L14.7123 11.0496C15.177 12.1011 14.475 13.2951 13.3171 13.4225C9.78351 13.8112 6.21691 13.8112 2.68331 13.4225C1.52544 13.2951 0.82338 12.1011 1.28807 11.0496L1.35027 10.9089C2.6689 7.925 4.27172 5.07076 6.13726 2.38438L6.43502 1.9556ZM8.68962 5.35316C8.68962 5.72789 8.38097 6.03167 8.00022 6.03167C7.61948 6.03167 7.31083 5.72789 7.31083 5.35316C7.31083 4.97843 7.61948 4.67465 8.00022 4.67465C8.38097 4.67465 8.68962 4.97843 8.68962 5.35316ZM8.00022 7.21906C8.28578 7.21906 8.51727 7.4469 8.51727 7.72795V11.1205C8.51727 11.4015 8.28578 11.6294 8.00022 11.6294C7.71467 11.6294 7.48318 11.4016 7.48318 11.1205V7.72795C7.48318 7.4469 7.71467 7.21906 8.00022 7.21906Z" fill="#74B2CB"/>
</svg>
