<svg width="14" height="14" viewBox="0 0 14 14" fill="none" xmlns="http://www.w3.org/2000/svg">
<path fill-rule="evenodd" clip-rule="evenodd" d="M5.63046 1.7114C6.28917 0.762866 7.71084 0.762869 8.36954 1.7114L8.63008 2.08658C10.2624 4.43716 11.6649 6.93461 12.8187 9.5455L12.8731 9.66864C13.2797 10.5887 12.6654 11.6335 11.6523 11.7449C8.56039 12.085 5.43961 12.085 2.34771 11.7449C1.33457 11.6335 0.720274 10.5887 1.12688 9.66865L1.1813 9.5455C2.3351 6.93462 3.73757 4.43716 5.36992 2.08658L5.63046 1.7114ZM7.60324 4.68426C7.60324 5.01215 7.33316 5.27795 7.00001 5.27795C6.66686 5.27795 6.39679 5.01215 6.39679 4.68426C6.39679 4.35637 6.66686 4.09056 7.00001 4.09056C7.33316 4.09056 7.60324 4.35637 7.60324 4.68426ZM7.00001 6.31692C7.24988 6.31692 7.45243 6.51628 7.45243 6.7622V9.73068C7.45243 9.9766 7.24988 10.176 7.00001 10.176C6.75015 10.176 6.5476 9.9766 6.5476 9.73068V6.7622C6.5476 6.51628 6.75015 6.31692 7.00001 6.31692Z" fill="white"/>
</svg>
