<svg width="20" height="20" viewBox="0 0 20 20" fill="#6AC9E5" xmlns="http://www.w3.org/2000/svg">
<path d="M2.16663 6.9998V6.99971C2.16644 5.92588 2.59802 4.89708 3.36427 4.14477C4.13051 3.39246 5.16706 2.97982 6.2407 2.99971L6.2407 2.99985L6.25261 2.99979C7.54039 2.99295 8.76918 3.53908 9.62705 4.49954L9.99996 4.91704L10.3729 4.49954C11.2307 3.53908 12.4595 2.99295 13.7473 2.99979L13.7473 2.99993L13.7592 2.99971C14.8329 2.97982 15.8694 3.39246 16.6357 4.14477C17.4019 4.89708 17.8335 5.92588 17.8333 6.99971V6.9998C17.8333 9.02819 16.6233 10.8641 14.9418 12.5728C14.1075 13.4206 13.1764 14.218 12.257 14.976C11.9945 15.1924 11.7318 15.4065 11.4726 15.6178C10.9592 16.0362 10.4593 16.4436 10.0016 16.8358C9.52253 16.4217 8.9974 15.9923 8.45857 15.5517C8.22276 15.3589 7.98434 15.164 7.746 14.9672C6.82645 14.2081 5.89505 13.4116 5.0602 12.5652C3.3777 10.8595 2.16663 9.02936 2.16663 6.9998Z" stroke="#6AC9E5"/>
</svg>
