<svg width="20" height="20" viewBox="0 0 20 20" fill="none" xmlns="http://www.w3.org/2000/svg">
<path d="M2.16675 6.9998V6.99971C2.16656 5.92588 2.59814 4.89708 3.36439 4.14477C4.13063 3.39246 5.16718 2.97982 6.24082 2.99971L6.24082 2.99985L6.25274 2.99979C7.54051 2.99295 8.76931 3.53908 9.62717 4.49954L10.0001 4.91704L10.373 4.49954C11.2309 3.53908 12.4596 2.99295 13.7474 2.99979L13.7474 2.99993L13.7593 2.99971C14.833 2.97982 15.8695 3.39246 16.6358 4.14477C17.402 4.89708 17.8336 5.92588 17.8334 6.99971V6.9998C17.8334 9.02819 16.6234 10.8641 14.9419 12.5728C14.1076 13.4206 13.1765 14.218 12.2571 14.976C11.9946 15.1924 11.7319 15.4065 11.4727 15.6178C10.9593 16.0362 10.4594 16.4436 10.0017 16.8358C9.52265 16.4217 8.99752 15.9923 8.45869 15.5517C8.22289 15.3589 7.98446 15.164 7.74612 14.9672C6.82657 14.2081 5.89517 13.4116 5.06032 12.5652C3.37782 10.8595 2.16675 9.02936 2.16675 6.9998Z" stroke="#6AC9E5"/>
</svg>
