<svg width="16" height="16" viewBox="0 0 16 16" fill="none" xmlns="http://www.w3.org/2000/svg">
<path fill-rule="evenodd" clip-rule="evenodd" d="M8.00004 2.5C5.68269 2.5 3.83337 4.31151 3.83337 6.51063C3.83337 7.84702 4.38066 8.99956 5.35693 9.71735C5.57211 9.87555 5.75618 10.1115 5.82668 10.4108C5.88454 10.6565 5.95076 10.9558 6.01635 11.273H9.98373C10.0493 10.9558 10.1155 10.6565 10.1734 10.4108C10.2439 10.1115 10.428 9.87555 10.6431 9.71735C11.6194 8.99956 12.1667 7.84702 12.1667 6.51063C12.1667 4.31151 10.3174 2.5 8.00004 2.5ZM9.79252 12.273H6.20756C6.28117 12.6981 6.33891 13.1006 6.3564 13.3896C6.37481 13.6939 6.60221 13.9666 6.93752 14.039L7.06817 14.0672C7.68179 14.1998 8.31829 14.1998 8.93192 14.0672L9.06257 14.039C9.39787 13.9666 9.62527 13.6939 9.64368 13.3896C9.66117 13.1006 9.71891 12.6981 9.79252 12.273ZM2.83337 6.51063C2.83337 3.72744 5.16273 1.5 8.00004 1.5C10.8373 1.5 13.1667 3.72744 13.1667 6.51063C13.1667 8.12653 12.4977 9.59505 11.2355 10.523C11.1779 10.5653 11.1539 10.6099 11.1468 10.6401C11.0678 10.9752 10.9717 11.4187 10.884 11.8686C10.7622 12.4941 10.663 13.1008 10.6419 13.45C10.5951 14.2221 10.0271 14.8537 9.27375 15.0165L9.1431 15.0447C8.39029 15.2073 7.60979 15.2073 6.85698 15.0447L6.72633 15.0165C5.97298 14.8537 5.40494 14.2221 5.35822 13.45C5.3371 13.1008 5.23789 12.4941 5.11604 11.8686C5.02837 11.4187 4.93224 10.9752 4.85332 10.6401C4.84621 10.6099 4.82214 10.5653 4.76458 10.523C3.50242 9.59505 2.83337 8.12653 2.83337 6.51063Z" fill="#6AC9E5"/>
</svg>
