<svg width="9" height="11" viewBox="0 0 9 11" fill="none" xmlns="http://www.w3.org/2000/svg">
<path d="M3.1029 5.0498C3.1029 4.15234 3.83044 3.4248 4.7279 3.4248C5.62537 3.4248 6.3529 4.15234 6.3529 5.0498C6.3529 5.94727 5.62537 6.6748 4.7279 6.6748C3.83044 6.6748 3.1029 5.94727 3.1029 5.0498Z" fill="#666666" fill-opacity="0.8"/>
<path fill-rule="evenodd" clip-rule="evenodd" d="M0.614677 4.4885C0.786496 2.40403 2.52839 0.799805 4.61993 0.799805H4.8359C6.92744 0.799805 8.66934 2.40403 8.84116 4.4885C8.93367 5.6108 8.587 6.7252 7.87417 7.59697L5.47764 10.5279C5.09015 11.0017 4.36569 11.0017 3.9782 10.5279L1.58167 7.59697C0.868838 6.7252 0.522168 5.6108 0.614677 4.4885ZM4.7279 2.6748C3.41623 2.6748 2.35291 3.73813 2.35291 5.0498C2.35291 6.36148 3.41623 7.4248 4.7279 7.4248C6.03958 7.4248 7.1029 6.36148 7.1029 5.0498C7.1029 3.73813 6.03958 2.6748 4.7279 2.6748Z" fill="#666666" fill-opacity="0.8"/>
</svg>
